<?xml version="1.0" encoding="UTF-8" standalone="no"?>
<!-- Created with Inkscape (http://www.inkscape.org/) -->

<svg
   xmlns:dc="http://purl.org/dc/elements/1.1/"
   xmlns:cc="http://creativecommons.org/ns#"
   xmlns:rdf="http://www.w3.org/1999/02/22-rdf-syntax-ns#"
   xmlns:svg="http://www.w3.org/2000/svg"
   xmlns="http://www.w3.org/2000/svg"
   xmlns:sodipodi="http://sodipodi.sourceforge.net/DTD/sodipodi-0.dtd"
   xmlns:inkscape="http://www.inkscape.org/namespaces/inkscape"
   width="744.09448819"
   height="1052.3622047"
   id="svg2"
   version="1.1"
   inkscape:version="0.48.4 r9939"
   sodipodi:docname="pyth-triangles.svg">
  <defs
     id="defs4" />
  <sodipodi:namedview
     id="base"
     pagecolor="#ffffff"
     bordercolor="#666666"
     borderopacity="1.0"
     inkscape:pageopacity="0.0"
     inkscape:pageshadow="2"
     inkscape:zoom="1.01"
     inkscape:cx="375"
     inkscape:cy="811.74744"
     inkscape:document-units="px"
     inkscape:current-layer="layer1"
     showgrid="false"
     inkscape:window-width="1072"
     inkscape:window-height="987"
     inkscape:window-x="0"
     inkscape:window-y="27"
     inkscape:window-maximized="0" />
  <metadata
     id="metadata7">
    <rdf:RDF>
      <cc:Work
         rdf:about="">
        <dc:format>image/svg+xml</dc:format>
        <dc:type
           rdf:resource="http://purl.org/dc/dcmitype/StillImage" />
        <dc:title />
      </cc:Work>
    </rdf:RDF>
  </metadata>
  <g
     inkscape:label="Layer 1"
     inkscape:groupmode="layer"
     id="layer1">
    <path
       style="fill:#000000;fill-opacity:1;stroke:#000000;stroke-width:0.45758256;stroke-miterlimit:4;stroke-opacity:1;stroke-dasharray:none"
       d="m 69.807296,338.87518 c -3.74857,-1.76928 -6.55867,-6.16348 -6.55867,-10.25589 0,-3.70988 2.45759,-7.75554 6.10873,-10.05614 1.66734,-1.05061 6.80727,-1.47948 8.98803,-0.74996 2.16298,0.72357 5.19334,3.43969 6.30755,5.65346 4.81636,9.56944 -5.19708,19.96255 -14.84564,15.40853 z"
       id="path3048"
       inkscape:connector-curvature="0" />
    <path
       inkscape:connector-curvature="0"
       id="path3818"
       d="m 278.50617,337.81645 c -3.74857,-1.76929 -6.55867,-6.16348 -6.55867,-10.25589 0,-3.70988 2.45759,-7.75554 6.10873,-10.05614 1.66734,-1.05061 6.80728,-1.47948 8.98803,-0.74996 2.16298,0.72357 5.19334,3.43969 6.30755,5.65346 4.81636,9.56944 -5.19708,19.96254 -14.84564,15.40853 z"
       style="fill:#000000;fill-opacity:1;stroke:#000000;stroke-width:0.45758256;stroke-miterlimit:4;stroke-opacity:1;stroke-dasharray:none" />
    <path
       style="fill:#000000;fill-opacity:1;stroke:#000000;stroke-width:0.45758256;stroke-miterlimit:4;stroke-opacity:1;stroke-dasharray:none"
       d="m 200.77007,337.35572 c -3.74857,-1.76929 -6.55867,-6.16348 -6.55867,-10.25589 0,-3.70988 2.45759,-7.75554 6.10873,-10.05614 1.66734,-1.05061 6.80728,-1.47948 8.98803,-0.74996 2.16298,0.72357 5.19334,3.43969 6.30755,5.65346 4.81636,9.56944 -5.19708,19.96254 -14.84564,15.40853 z"
       id="path3820"
       inkscape:connector-curvature="0" />
    <path
       inkscape:connector-curvature="0"
       id="path3822"
       d="m 239.82489,273.28387 c -3.74857,-1.76929 -6.55867,-6.16348 -6.55867,-10.25589 0,-3.70988 2.45759,-7.75553 6.10873,-10.05614 1.66734,-1.0506 6.80727,-1.47948 8.98803,-0.74996 2.16298,0.72357 5.19334,3.43969 6.30755,5.65346 4.81636,9.56944 -5.19708,19.96255 -14.84564,15.40853 z"
       style="fill:#000000;fill-opacity:1;stroke:#000000;stroke-width:0.45758256;stroke-miterlimit:4;stroke-opacity:1;stroke-dasharray:none" />
    <path
       style="fill:#000000;fill-opacity:1;stroke:#000000;stroke-width:0.45758256;stroke-miterlimit:4;stroke-opacity:1;stroke-dasharray:none"
       d="m 429.14043,337.74782 c -3.74857,-1.76929 -6.55867,-6.16348 -6.55867,-10.25589 0,-3.70988 2.45758,-7.75554 6.10872,-10.05614 1.66734,-1.05061 6.80728,-1.47948 8.98803,-0.74996 2.16298,0.72357 5.19335,3.43969 6.30756,5.65346 4.81635,9.56944 -5.19708,19.96254 -14.84564,15.40853 z"
       id="path3824"
       inkscape:connector-curvature="0" />
    <path
       inkscape:connector-curvature="0"
       id="path3826"
       d="m 511.29147,336.75772 c -3.74857,-1.76928 -6.55867,-6.16347 -6.55867,-10.25589 0,-3.70988 2.45759,-7.75554 6.10873,-10.05614 1.66734,-1.0506 6.80727,-1.47947 8.98803,-0.74996 2.16298,0.72357 5.19334,3.43969 6.30755,5.65347 4.81636,9.56944 -5.19708,19.96254 -14.84564,15.40852 z"
       style="fill:#000000;fill-opacity:1;stroke:#000000;stroke-width:0.45758256;stroke-miterlimit:4;stroke-opacity:1;stroke-dasharray:none" />
    <path
       style="fill:#000000;fill-opacity:1;stroke:#000000;stroke-width:0.45758256;stroke-miterlimit:4;stroke-opacity:1;stroke-dasharray:none"
       d="m 594.05909,336.22836 c -3.74857,-1.76929 -6.55867,-6.16348 -6.55867,-10.25589 0,-3.70988 2.45758,-7.75554 6.10872,-10.05614 1.66734,-1.05061 6.80728,-1.47948 8.98803,-0.74996 2.16298,0.72357 5.19335,3.43969 6.30756,5.65346 4.81635,9.56944 -5.19708,19.96254 -14.84564,15.40853 z"
       id="path3828"
       inkscape:connector-curvature="0" />
    <path
       style="fill:#000000;fill-opacity:1;stroke:#000000;stroke-width:0.45758256;stroke-miterlimit:4;stroke-opacity:1;stroke-dasharray:none"
       d="m 470.54898,274.3426 c -3.74857,-1.76928 -6.55867,-6.16347 -6.55867,-10.25588 0,-3.70989 2.45758,-7.75554 6.10872,-10.05615 1.66734,-1.0506 6.80728,-1.47947 8.98803,-0.74996 2.16298,0.72357 5.19335,3.43969 6.30755,5.65347 4.81636,9.56944 -5.19708,19.96254 -14.84563,15.40852 z"
       id="path3832"
       inkscape:connector-curvature="0" />
    <path
       inkscape:connector-curvature="0"
       id="path3834"
       d="m 550.96286,272.3624 c -3.74857,-1.76928 -6.55867,-6.16347 -6.55867,-10.25588 0,-3.70989 2.45758,-7.75554 6.10872,-10.05615 1.66734,-1.0506 6.80728,-1.47947 8.98803,-0.74996 2.16298,0.72357 5.19335,3.43969 6.30756,5.65347 4.81635,9.56944 -5.19708,19.96254 -14.84564,15.40852 z"
       style="fill:#000000;fill-opacity:1;stroke:#000000;stroke-width:0.45758256;stroke-miterlimit:4;stroke-opacity:1;stroke-dasharray:none" />
    <path
       style="fill:#000000;fill-opacity:1;stroke:#000000;stroke-width:0.45758256;stroke-miterlimit:4;stroke-opacity:1;stroke-dasharray:none"
       d="m 508.24016,210.80013 c -3.74857,-1.76929 -6.55867,-6.16348 -6.55867,-10.25589 0,-3.70988 2.45759,-7.75554 6.10873,-10.05614 1.66734,-1.0506 6.80728,-1.47948 8.98803,-0.74996 2.16298,0.72357 5.19334,3.43969 6.30755,5.65346 4.81636,9.56944 -5.19708,19.96254 -14.84564,15.40853 z"
       id="path3840"
       inkscape:connector-curvature="0" />
  </g>
</svg>
